<?xml version="1.0" standalone="no"?>
<!DOCTYPE svg PUBLIC "-//W3C//DTD SVG 1.1//EN"
"http://www.w3.org/Graphics/SVG/1.1/DTD/svg11.dtd">

<svg width="284" height="102" view_box="0 0 284 102"
xmlns="http://www.w3.org/2000/svg"
xmlns:link="http://www.w3.org/1999/xlink">\n\n<desc>Généré par Mocodo 2.3.7 le Wed, 06 Jul 2022 03:16:57</desc>

<rect id="frame" x="0" y="0" width="284" height="102" fill="#f7f7f7" stroke="none" stroke-width="0"/>

<!-- Association HAS -->
<line x1="237" y1="51" x2="147" y2="51" stroke="#d6604d" stroke-width="2"/>
<text x="172" y="68.0" fill="#2166ac" font-family="Verdana" font-size="12">0,N</text>
<line x1="52" y1="51" x2="147" y2="51" stroke="#d6604d" stroke-width="2"/>
<text x="100" y="68.0" fill="#2166ac" font-family="Verdana" font-size="12">0,1</text>
<g id="association-HAS">
	<path d="M 153 26 a 14 14 90 0 1 14 14 V 51 h -40 V 40 a 14 14 90 0 1 14 -14" fill="#f4a582" stroke="#f4a582" stroke-width="0"/>
	<path d="M 167 51.0 v 11 a 14 14 90 0 1 -14 14 H 141 a 14 14 90 0 1 -14 -14 V 51.0 H 40" fill="#fddbc7" stroke="#fddbc7" stroke-width="0"/>
	<rect x="127" y="26" width="40" height="50" fill="none" rx="14" stroke="#d6604d" stroke-width="2"/>
	<line x1="127" y1="51" x2="167" y2="51" stroke="#d6604d" stroke-width="1"/>
	<text x="134" y="43.7" fill="#000000" font-family="Verdana" font-size="12">HAS</text>
</g>

<!-- Entity PRODUCT -->
<g id="entity-PRODUCT">
	<g id="frame-PRODUCT">
		<rect x="9" y="9" width="86" height="25" fill="#92c5de" stroke="#92c5de" stroke-width="0"/>
		<rect x="9" y="34.0" width="86" height="59" fill="#d1e5f0" stroke="#d1e5f0" stroke-width="0"/>
		<rect x="9" y="9" width="86" height="84" fill="none" stroke="#4393c3" stroke-width="2"/>
		<line x1="9" y1="34" x2="95" y2="34" stroke="#4393c3" stroke-width="1"/>
	</g>
	<text x="22" y="26.7" fill="#000000" font-family="Verdana" font-size="12">PRODUCT</text>
	<text x="14" y="51.8" fill="#000000" font-family="Verdana" font-size="12">codeProduct</text>
	<line x1="14" y1="54" x2="89" y2="54" stroke="#000000" stroke-width="1"/>
	<text x="14" y="68.8" fill="#000000" font-family="Verdana" font-size="12">title</text>
	<text x="14" y="85.8" fill="#000000" font-family="Verdana" font-size="12">description</text>
</g>

<!-- Entity BRAND -->
<g id="entity-BRAND">
	<g id="frame-BRAND">
		<rect x="199" y="17" width="76" height="25" fill="#92c5de" stroke="#92c5de" stroke-width="0"/>
		<rect x="199" y="42.0" width="76" height="43" fill="#d1e5f0" stroke="#d1e5f0" stroke-width="0"/>
		<rect x="199" y="17" width="76" height="68" fill="none" stroke="#4393c3" stroke-width="2"/>
		<line x1="199" y1="42" x2="275" y2="42" stroke="#4393c3" stroke-width="1"/>
	</g>
	<text x="215" y="34.7" fill="#000000" font-family="Verdana" font-size="12">BRAND</text>
	<text x="204" y="59.8" fill="#000000" font-family="Verdana" font-size="12">codeBrand</text>
	<line x1="204" y1="62" x2="269" y2="62" stroke="#000000" stroke-width="1"/>
	<text x="204" y="76.8" fill="#000000" font-family="Verdana" font-size="12">name</text>
</g>
</svg>